<svg xmlns="http://www.w3.org/2000/svg" viewBox="0 0 200 200">
  <path class="a" d="M83.51,142.91a1.44,1.44,0,0,1-1.39.94,1.4,1.4,0,0,1-1.29-1.07c0-.15-3.8-15.54-17.42-33a118.33,118.33,0,0,0-17.5-18.44L31.6,123.8c4.11,3.48,22.91,19.7,34,34.57,9.22,12.33,13.69,26.49,15.47,33.5,6.46-15.46,30.7-70.72,59-100.6S191.18,42.81,197,38.21L153.61,5.57c-5.44,8.21-36.51,55.46-48.8,81.55C96.56,104.63,83.64,142.53,83.51,142.91Z"/>
  <g>
    <path class="b" d="M76.65,186.59a73.52,73.52,0,1,1,45.16-136q2-3.3,4-6.55A81.12,81.12,0,1,0,78.84,194.37C78.41,192.58,77.7,189.86,76.65,186.59Z"/>
    <path class="c" d="M151.07,83.94A73.38,73.38,0,0,1,86.3,186.82c-1.45,3.34-2.57,6-3.29,7.76.25,0,.49,0,.73,0A81,81,0,0,0,156.8,78.18Q154,81,151.07,83.94Z"/>
  </g>
</svg>
